<?xml version="1.0" encoding="UTF-8"?>
<!DOCTYPE svg PUBLIC "-//W3C//DTD SVG 1.1//EN" "http://www.w3.org/Graphics/SVG/1.1/DTD/svg11.dtd">
<!-- Creator: CorelDRAW X7 -->
<svg xmlns="http://www.w3.org/2000/svg" xml:space="preserve" width="113.671mm" height="52.813mm" version="1.1" style="shape-rendering:geometricPrecision; text-rendering:geometricPrecision; image-rendering:optimizeQuality; fill-rule:evenodd; clip-rule:evenodd"
viewBox="0 0 11581 5381"
 xmlns:xlink="http://www.w3.org/1999/xlink">
 <defs>
  <style type="text/css">
   <![CDATA[
    .fil3 {fill:none}
    .fil1 {fill:#FCB000}
    .fil0 {fill:white}
    .fil2 {fill:#0D2361;fill-rule:nonzero}
   ]]>
  </style>
 </defs>
 <g id="Capa_x0020_1">
  <metadata id="CorelCorpID_0Corel-Layer"/>
  <g id="_1441213949248">
   <path class="fil0" d="M2503 1962c178,0 323,145 323,323 0,178 -145,323 -323,323 -178,0 -323,-145 -323,-323 0,-178 145,-323 323,-323z"/>
   <path class="fil0" d="M3526 2953c146,0 264,119 264,264 0,146 -118,264 -264,264 -145,0 -264,-118 -264,-264 0,-145 119,-264 264,-264z"/>
   <path class="fil0" d="M2573 2935c146,0 264,118 264,264 0,145 -118,264 -264,264 -145,0 -264,-119 -264,-264 0,-146 119,-264 264,-264z"/>
   <path class="fil0" d="M1602 2935c146,0 264,118 264,264 0,145 -118,264 -264,264 -145,0 -264,-119 -264,-264 0,-146 119,-264 264,-264z"/>
   <path class="fil0" d="M682 997c113,0 205,92 205,205 0,114 -92,206 -205,206 -114,0 -206,-92 -206,-206 0,-113 92,-205 206,-205z"/>
   <path class="fil0" d="M697 1940c113,0 205,92 205,205 0,113 -92,205 -205,205 -114,0 -206,-92 -206,-205 0,-113 92,-205 206,-205z"/>
   <path class="fil0" d="M690 3888c114,0 206,92 206,206 0,113 -92,205 -206,205 -113,0 -205,-92 -205,-205 0,-114 92,-206 205,-206z"/>
   <path class="fil0" d="M3595 3903c114,0 206,92 206,205 0,113 -92,205 -206,205 -113,0 -205,-92 -205,-205 0,-113 92,-205 205,-205z"/>
   <path class="fil0" d="M2642 3884c114,0 206,92 206,205 0,114 -92,206 -206,206 -113,0 -205,-92 -205,-206 0,-113 92,-205 205,-205z"/>
   <path class="fil0" d="M1590 1003c146,0 264,118 264,264 0,146 -118,264 -264,264 -146,0 -264,-118 -264,-264 0,-146 118,-264 264,-264z"/>
   <path class="fil0" d="M1605 1946c146,0 264,118 264,264 0,145 -118,264 -264,264 -146,0 -264,-119 -264,-264 0,-146 118,-264 264,-264z"/>
   <path class="fil0" d="M2488 1020c178,0 322,144 322,322 0,179 -144,323 -322,323 -178,0 -323,-144 -323,-323 0,-178 145,-322 323,-322z"/>
   <path class="fil0" d="M3456 1981c178,0 323,144 323,323 0,178 -145,322 -323,322 -178,0 -323,-144 -323,-322 0,-179 145,-323 323,-323z"/>
   <path class="fil0" d="M3394 1018c211,0 382,171 382,381 0,211 -171,382 -382,382 -210,0 -381,-171 -381,-382 0,-210 171,-381 381,-381z"/>
   <g>
    <path class="fil0" d="M4967 1008l570 0 0 225 -435 0c-79,-2 -138,25 -150,142l0 1060c16,93 66,136 135,147l450 0 0 225 -570 0c-165,0 -300,-146 -300,-325l0 -1149c0,-179 135,-325 300,-325z"/>
    <polygon class="fil0" points="5899,1008 6343,1964 6343,2829 6637,2829 6637,1926 7081,1009 7081,1008 6829,1008 6491,1706 6186,1008 "/>
    <path class="fil0" d="M8174 1868c100,44 170,114 170,265l0 413c0,212 -137,285 -304,285l-634 0 0 -1823 634 0c167,0 304,137 304,304l0 284c0,119 -70,222 -170,272zm-516 129l340 0c62,0 113,58 113,128l0 385c0,70 -51,128 -113,128l-340 0 0 -641zm0 -788l340 0c62,0 113,51 113,113l0 310c0,62 -51,113 -113,113l-340 0 0 -536z"/>
    <path class="fil0" d="M9404 1008l-272 0 -465 1824 264 0 107 -466 457 0 100 466 268 0 -459 -1824zm-315 1138l186 -802 173 802 -359 0z"/>
    <path class="fil0" d="M10525 1008l570 0 0 225 -435 0c-79,-2 -138,25 -150,142l0 1060c16,93 66,136 136,147l449 0 0 225 -570 0c-165,0 -300,-146 -300,-325l0 -1149c0,-179 135,-325 300,-325z"/>
   </g>
   <polygon class="fil1" points="4677,3208 11105,3208 11105,4384 4677,4384 "/>
   <path class="fil2" d="M5343 3716l-76 0 0 -47 208 0 0 47 -76 0 0 207 -56 0 0 -207zm162 -47l190 0 0 47 -134 0 0 54 123 0 0 44 -123 0 0 62 137 0 0 47 -193 0 0 -254zm400 85c-1,-6 -3,-12 -7,-18 -3,-5 -7,-10 -12,-14 -5,-4 -11,-7 -17,-9 -6,-2 -13,-3 -20,-3 -12,0 -23,2 -32,7 -9,5 -16,11 -21,19 -6,9 -10,18 -12,28 -3,11 -4,22 -4,33 0,10 1,21 4,31 2,10 6,19 12,27 5,8 12,15 21,20 9,4 20,7 32,7 17,0 31,-5 40,-16 10,-11 16,-24 18,-41l54 0c-2,16 -5,30 -11,43 -6,13 -14,24 -24,33 -9,9 -21,16 -34,21 -13,4 -27,7 -43,7 -20,0 -37,-4 -53,-11 -15,-6 -28,-16 -39,-28 -10,-11 -19,-25 -24,-42 -6,-16 -9,-33 -9,-51 0,-19 3,-37 9,-53 5,-16 14,-30 24,-43 11,-12 24,-21 39,-28 16,-7 33,-10 53,-10 14,0 27,2 40,6 12,4 23,10 33,17 10,8 18,18 25,29 6,11 10,24 12,39l-54 0zm94 -85l56 0 0 97 103 0 0 -97 56 0 0 254 -56 0 0 -110 -103 0 0 110 -56 0 0 -254zm264 0l55 0 106 170 1 0 0 -170 52 0 0 254 -56 0 -105 -170 -1 0 0 170 -52 0 0 -254zm308 128c0,10 1,21 4,31 2,10 6,19 12,27 5,8 12,15 21,20 9,4 20,7 32,7 13,0 23,-3 32,-7 9,-5 16,-12 22,-20 5,-8 9,-17 12,-27 2,-10 3,-21 3,-31 0,-11 -1,-22 -3,-33 -3,-10 -7,-19 -12,-28 -6,-8 -13,-14 -22,-19 -9,-5 -19,-7 -32,-7 -12,0 -23,2 -32,7 -9,5 -16,11 -21,19 -6,9 -10,18 -12,28 -3,11 -4,22 -4,33zm-56 0c0,-19 3,-37 9,-53 6,-16 14,-30 24,-43 11,-12 24,-21 40,-28 15,-7 33,-10 52,-10 20,0 37,3 53,10 15,7 28,16 39,28 11,13 19,27 25,43 5,16 8,34 8,53 0,18 -3,35 -8,51 -6,17 -14,31 -25,42 -11,12 -24,22 -39,28 -16,7 -33,11 -53,11 -19,0 -37,-4 -52,-11 -16,-6 -29,-16 -40,-28 -10,-11 -18,-25 -24,-42 -6,-16 -9,-33 -9,-51zm288 -128l56 0 0 207 124 0 0 47 -180 0 0 -254zm256 128c0,10 1,21 4,31 2,10 6,19 12,27 5,8 12,15 21,20 9,4 20,7 32,7 13,0 23,-3 32,-7 9,-5 16,-12 21,-20 6,-8 10,-17 12,-27 3,-10 4,-21 4,-31 0,-11 -1,-22 -4,-33 -2,-10 -6,-19 -12,-28 -5,-8 -12,-14 -21,-19 -9,-5 -19,-7 -32,-7 -12,0 -23,2 -32,7 -9,5 -16,11 -21,19 -6,9 -10,18 -12,28 -3,11 -4,22 -4,33zm-56 0c0,-19 3,-37 9,-53 5,-16 14,-30 24,-43 11,-12 24,-21 39,-28 16,-7 33,-10 53,-10 20,0 37,3 53,10 15,7 28,16 39,28 11,13 19,27 24,43 6,16 9,34 9,53 0,18 -3,35 -9,51 -5,17 -13,31 -24,42 -11,12 -24,22 -39,28 -16,7 -33,11 -53,11 -20,0 -37,-4 -53,-11 -15,-6 -28,-16 -39,-28 -10,-11 -19,-25 -24,-42 -6,-16 -9,-33 -9,-51zm472 97c-10,13 -21,22 -33,27 -13,5 -25,8 -37,8 -20,0 -37,-4 -53,-11 -15,-6 -28,-16 -39,-28 -11,-11 -19,-25 -24,-42 -6,-16 -9,-33 -9,-51 0,-19 3,-37 9,-53 5,-16 13,-30 24,-43 11,-12 24,-21 39,-28 16,-7 33,-10 53,-10 13,0 26,2 38,5 12,4 23,10 33,18 9,7 18,17 24,28 7,11 11,24 12,38l-53 0c-4,-14 -10,-25 -20,-32 -9,-7 -21,-10 -34,-10 -13,0 -23,2 -32,7 -9,5 -16,11 -21,19 -6,9 -10,18 -12,28 -3,11 -4,22 -4,33 0,10 1,21 4,31 2,10 6,19 12,27 5,8 12,15 21,20 9,4 19,7 32,7 18,0 32,-5 43,-14 10,-10 16,-23 17,-41l-56 0 0 -42 107 0 0 138 -36 0 -5 -29zm152 -70l-94 -155 63 0 60 100 59 -100 62 0 -94 156 0 98 -56 0 0 -99zm270 -155l179 0 0 47 -123 0 0 58 107 0 0 44 -107 0 0 105 -56 0 0 -254zm256 128c0,10 2,21 4,31 3,10 6,19 12,27 5,8 13,15 21,20 9,4 20,7 32,7 13,0 24,-3 32,-7 9,-5 16,-12 22,-20 5,-8 9,-17 12,-27 2,-10 3,-21 3,-31 0,-11 -1,-22 -3,-33 -3,-10 -7,-19 -12,-28 -6,-8 -13,-14 -22,-19 -8,-5 -19,-7 -32,-7 -12,0 -23,2 -32,7 -8,5 -16,11 -21,19 -6,9 -9,18 -12,28 -2,11 -4,22 -4,33zm-56 0c0,-19 3,-37 9,-53 6,-16 14,-30 25,-43 10,-12 23,-21 39,-28 15,-7 33,-10 52,-10 20,0 38,3 53,10 15,7 28,16 39,28 11,13 19,27 25,43 5,16 8,34 8,53 0,18 -3,35 -8,51 -6,17 -14,31 -25,42 -11,12 -24,22 -39,28 -15,7 -33,11 -53,11 -19,0 -37,-4 -52,-11 -16,-6 -29,-16 -39,-28 -11,-11 -19,-25 -25,-42 -6,-16 -9,-33 -9,-51zm344 -13l61 0c13,0 23,-3 29,-9 7,-6 10,-15 10,-28 0,-12 -3,-21 -10,-27 -6,-5 -16,-8 -29,-8l-61 0 0 72zm-56 -115l137 0c12,0 22,2 31,5 9,4 17,9 24,15 6,7 11,14 15,23 3,8 5,17 5,27 0,15 -3,28 -10,39 -6,10 -16,19 -31,24l0 1c7,2 13,5 18,9 4,4 8,9 11,14 2,5 5,11 6,18 1,6 2,12 2,19 1,4 1,8 1,14 0,5 1,11 1,16 1,6 2,11 3,17 2,5 4,9 6,13l-56 0c-1,-4 -3,-9 -3,-14 -1,-4 -2,-10 -3,-15 0,-5 -1,-11 -1,-16 0,-6 -1,-11 -2,-16 -2,-13 -6,-23 -12,-29 -6,-6 -16,-10 -30,-10l-56 0 0 100 -56 0 0 -254zm412 103l57 0c10,0 18,-3 24,-8 7,-4 10,-12 10,-23 0,-6 -1,-11 -3,-14 -3,-4 -5,-7 -9,-9 -4,-2 -8,-4 -12,-5 -5,0 -10,-1 -15,-1l-52 0 0 60zm-56 -103l120 0c12,0 23,1 33,3 10,2 18,6 25,10 8,5 13,12 17,20 4,8 6,18 6,30 0,12 -3,23 -9,32 -6,8 -15,15 -26,21 16,4 28,12 35,23 8,12 12,25 12,41 0,13 -3,24 -8,33 -4,10 -11,17 -20,23 -8,6 -18,11 -28,13 -11,3 -22,5 -34,5l-123 0 0 -254zm56 210l60 0c5,0 10,0 15,-1 5,-1 10,-3 14,-6 3,-2 6,-5 9,-10 2,-4 3,-9 3,-16 0,-13 -4,-22 -11,-28 -7,-6 -17,-8 -29,-8l-61 0 0 69zm410 -52c0,34 -9,60 -28,77 -20,16 -46,25 -80,25 -35,0 -61,-9 -80,-25 -19,-17 -28,-43 -28,-77l0 -158 55 0 0 158c0,7 1,13 2,20 1,7 4,13 8,18 4,5 9,9 16,12 6,3 15,5 27,5 20,0 33,-5 41,-14 8,-8 11,-22 11,-41l0 -158 56 0 0 158zm86 11c0,9 2,16 5,22 3,6 7,11 12,15 5,3 11,6 18,8 7,2 14,2 22,2 5,0 10,0 16,-1 5,-1 11,-2 16,-5 5,-2 9,-5 12,-9 3,-5 5,-10 5,-16 0,-7 -2,-13 -6,-17 -5,-4 -11,-8 -18,-11 -7,-3 -15,-5 -24,-7 -9,-2 -18,-5 -27,-7 -10,-3 -19,-6 -28,-9 -9,-3 -17,-8 -24,-13 -7,-6 -13,-13 -18,-21 -4,-8 -6,-18 -6,-30 0,-13 3,-24 8,-33 6,-10 13,-18 22,-25 9,-6 19,-11 31,-14 11,-3 23,-4 34,-4 13,0 26,1 38,4 12,3 23,8 33,14 9,7 17,16 22,26 6,10 9,23 9,37l-54 0c-1,-7 -2,-13 -5,-18 -3,-5 -7,-9 -11,-12 -5,-3 -10,-5 -16,-6 -6,-1 -12,-2 -19,-2 -4,0 -9,1 -13,1 -5,1 -9,3 -12,5 -4,3 -7,6 -9,10 -3,3 -4,8 -4,13 0,5 1,9 3,12 2,3 5,6 11,8 6,3 13,5 23,8 10,3 23,6 39,10 3,1 7,2 12,3 5,2 10,3 16,6 5,2 11,5 16,8 6,4 11,8 16,14 4,5 8,11 11,18 3,7 4,16 4,25 0,12 -2,23 -7,33 -4,10 -11,18 -20,25 -9,8 -20,13 -33,18 -13,4 -28,6 -45,6 -14,0 -28,-2 -41,-6 -13,-3 -25,-9 -35,-16 -10,-7 -18,-17 -24,-28 -6,-11 -9,-25 -9,-41l54 0zm193 -169l56 0 0 254 -56 0 0 -254zm105 0l56 0 106 170 1 0 0 -170 52 0 0 254 -56 0 -106 -170 0 0 0 170 -53 0 0 -254zm264 0l190 0 0 47 -134 0 0 54 123 0 0 44 -123 0 0 62 137 0 0 47 -193 0 0 -254zm269 169c0,9 1,16 4,22 3,6 7,11 13,15 5,3 11,6 17,8 7,2 14,2 22,2 5,0 10,0 16,-1 6,-1 11,-2 16,-5 5,-2 9,-5 12,-9 4,-5 5,-10 5,-16 0,-7 -2,-13 -6,-17 -5,-4 -10,-8 -18,-11 -7,-3 -15,-5 -24,-7 -9,-2 -18,-5 -27,-7 -10,-3 -19,-6 -28,-9 -9,-3 -17,-8 -24,-13 -7,-6 -13,-13 -17,-21 -5,-8 -7,-18 -7,-30 0,-13 3,-24 8,-33 6,-10 13,-18 22,-25 9,-6 20,-11 31,-14 11,-3 23,-4 34,-4 13,0 26,1 38,4 13,3 23,8 33,14 9,7 17,16 23,26 5,10 8,23 8,37l-54 0c-1,-7 -2,-13 -5,-18 -3,-5 -6,-9 -11,-12 -4,-3 -10,-5 -16,-6 -5,-1 -12,-2 -18,-2 -5,0 -9,1 -14,1 -4,1 -8,3 -12,5 -4,3 -7,6 -9,10 -3,3 -4,8 -4,13 0,5 1,9 3,12 2,3 6,6 11,8 6,3 14,5 23,8 10,3 23,6 39,10 3,1 7,2 12,3 5,2 10,3 16,6 6,2 11,5 17,8 5,4 10,8 15,14 5,5 8,11 11,18 3,7 4,16 4,25 0,12 -2,23 -6,33 -5,10 -12,18 -20,25 -9,8 -20,13 -34,18 -13,4 -28,6 -45,6 -14,0 -28,-2 -41,-6 -13,-3 -25,-9 -35,-16 -10,-7 -18,-17 -24,-28 -6,-11 -9,-25 -8,-41l54 0zm231 0c0,9 1,16 4,22 3,6 7,11 13,15 5,3 11,6 17,8 7,2 14,2 22,2 5,0 10,0 16,-1 6,-1 11,-2 16,-5 5,-2 9,-5 12,-9 4,-5 5,-10 5,-16 0,-7 -2,-13 -6,-17 -5,-4 -10,-8 -18,-11 -7,-3 -15,-5 -24,-7 -9,-2 -18,-5 -27,-7 -10,-3 -19,-6 -28,-9 -9,-3 -17,-8 -24,-13 -7,-6 -13,-13 -17,-21 -5,-8 -7,-18 -7,-30 0,-13 3,-24 8,-33 6,-10 13,-18 22,-25 9,-6 20,-11 31,-14 11,-3 23,-4 34,-4 13,0 26,1 38,4 13,3 23,8 33,14 9,7 17,16 22,26 6,10 9,23 9,37l-54 0c-1,-7 -2,-13 -5,-18 -3,-5 -6,-9 -11,-12 -4,-3 -10,-5 -16,-6 -5,-1 -12,-2 -18,-2 -5,0 -9,1 -14,1 -4,1 -9,3 -12,5 -4,3 -7,6 -9,10 -3,3 -4,8 -4,13 0,5 1,9 3,12 2,3 6,6 11,8 6,3 13,5 23,8 10,3 23,6 39,10 3,1 7,2 12,3 5,2 10,3 16,6 5,2 11,5 17,8 5,4 10,8 15,14 5,5 8,11 11,18 3,7 4,16 4,25 0,12 -2,23 -6,33 -5,10 -12,18 -20,25 -9,8 -20,13 -34,18 -13,4 -28,6 -45,6 -14,0 -28,-2 -41,-6 -13,-3 -25,-9 -35,-16 -10,-7 -18,-17 -24,-28 -6,-11 -9,-25 -8,-41l54 0z"/>
  </g>
  <rect class="fil3" width="11581" height="5381"/>
 </g>
</svg>
